<?xml version="1.0" encoding="utf-8"?>
<!-- Generator: Adobe Illustrator 16.0.0, SVG Export Plug-In . SVG Version: 6.00 Build 0)  -->
<!DOCTYPE svg PUBLIC "-//W3C//DTD SVG 1.1//EN" "http://www.w3.org/Graphics/SVG/1.1/DTD/svg11.dtd">
<svg version="1.1" id="Layer_1" xmlns="http://www.w3.org/2000/svg" xmlns:xlink="http://www.w3.org/1999/xlink" x="0px" y="0px"
	 width="24px" height="24px" viewBox="0 0 24 24" enable-background="new 0 0 24 24" xml:space="preserve">
<path fill="#4697E0" stroke="#FFFFFF" stroke-width="2" stroke-miterlimit="10" d="M16.834,6.5c0,1.104-0.832,2-1.857,2H8.858
	C7.832,8.5,7,7.604,7,6.5V3.083c0-1.104,0.832-2,1.858-2h6.117c1.026,0,1.858,0.896,1.858,2L16.834,6.5L16.834,6.5z"/>
<path fill="#FFFFFF" d="M24,20c0,1.104-0.896,2-2,2H2c-1.104,0-2-0.896-2-2V7.75c0-1.104,0.896-2,2-2h20c1.104,0,2,0.896,2,2V20z"/>
<rect y="12.083" fill="#4697E0" width="24" height="0.417"/>
<rect x="10.667" y="12.5" fill="#4697E0" width="2.75" height="1.833"/>
</svg>
